<svg xmlns="http://www.w3.org/2000/svg" viewBox="0 0 841.89 595.28"><g id="Capa_4" data-name="Capa 4"><path d="M4.18,296.19c456.67,474.83,835.5,2.6,835.5,2.6C401.17-126.75,4.18,296.19,4.18,296.19Zm425,195.22a183,183,0,0,1,0-365.94c101.06,0,183,81.92,183,183A183,183,0,0,1,429.18,491.41Z"/><path d="M300.59,371c-12-36.74,11.46-90,56.48-131.18,53.94-49.32,133.75-76,165.67-41.09a53.28,53.28,0,0,1,4.48,5.69c-26.64,5.43-87.25,25.05-100.54,91.4C412.78,365.06,329.66,371.07,300.59,371Z"/><path d="M321.65,410.44a54.08,54.08,0,0,1-11.44-19.69c29.07,0,112.19-6,126.09-75.18,13.29-66.35,73.9-86,100.54-91.4a49.5,49.5,0,0,1,2.78,4.32c21.18,36.78,2,97.45-47.14,142.43C438.54,420.24,353.54,445.29,321.65,410.44Z"/></g></svg>