<?xml version="1.0" encoding="utf-8"?>
<!-- Generator: Adobe Illustrator 24.0.2, SVG Export Plug-In . SVG Version: 6.00 Build 0)  -->
<svg version="1.1" id="Capa_1" xmlns="http://www.w3.org/2000/svg" xmlns:xlink="http://www.w3.org/1999/xlink" x="0px" y="0px"
	 viewBox="0 0 595.28 595.28" style="enable-background:new 0 0 595.28 595.28;" xml:space="preserve">
<style type="text/css">
	.st0{fill:#372459;}
	.st1{fill:#FFFFFF;}
</style>
<g>
	<g>
		<g id="b_3_">
			<g>
				<g>
					<path class="st0" d="M143.92,505.02c-15.06-45.68,14.29-112.03,70.43-163.58c67.12-61.5,166.64-94.68,206.45-51.29
						c2.04,2.3,3.83,4.59,5.61,7.15c-33.18,6.89-108.71,31.13-125.3,113.82c-17.35,86.26-120.96,93.66-157.2,93.66L143.92,505.02z"
						/>
					<path class="st0" d="M170.21,554.02c-6.64-7.15-11.23-15.57-14.29-24.5c36.24,0,139.85-7.4,157.2-93.66
						c16.59-82.68,92.13-107.18,125.3-113.82c1.28,1.79,2.3,3.57,3.57,5.36c26.29,45.94,2.55,121.47-58.69,177.62
						c-67.12,61.5-173.02,92.64-212.83,49.25L170.21,554.02z"/>
				</g>
			</g>
		</g>
	</g>
	<g>
		<path class="st0" d="M298.9,15.53c-3.31,10.96-6.34,21.61-8.92,32.28c-2.59,10.65-4.7,21.26-6.13,31.84
			c-1.4,10.56-2.18,21.19-1.7,31.48c0.25,5.21,0.94,10.45,1.74,15.75c0.81,5.3,1.84,10.66,2.94,16.08
			c1.06,5.43,2.19,10.94,3.22,16.52c1.01,5.59,1.89,11.27,2.59,17c0.67,5.74,1.02,11.56,1.14,17.37c0.08,5.82-0.2,11.65-0.81,17.43
			c-0.58,5.78-1.62,11.49-2.89,17.11c-0.71,2.8-1.33,5.6-2.22,8.34l-1.25,4.11l-1.41,4.05c-3.83,10.77-8.78,21.01-14.65,30.62
			c6.58-21.51,11.31-43.26,11.07-64.84c-0.04-5.39-0.28-10.75-0.9-16.09c-0.54-5.34-1.34-10.66-2.36-15.96
			c-0.99-5.32-2.2-10.62-3.48-15.97c-1.25-5.35-2.62-10.74-3.95-16.23c-1.28-5.5-2.52-11.09-3.56-16.81
			c-1.02-5.72-1.78-11.58-2.14-17.54c-0.74-12.04,0.44-23.83,2.96-35.27c2.54-11.42,6.44-22.43,11.56-32.76
			c2.52-5.18,5.41-10.17,8.55-14.98C291.47,24.3,294.92,19.68,298.9,15.53z"/>
	</g>
	<g>
		<path class="st0" d="M340.02,74.06c-1.93,7.44-3.54,14.39-4.85,21.29c-1.28,6.89-2.22,13.63-2.73,20.3
			c-0.08,0.83-0.1,1.67-0.15,2.5c-0.07,0.83-0.11,1.66-0.15,2.49c-0.09,1.66-0.1,3.32-0.11,4.98c-0.01,0.83-0.02,1.65,0,2.48
			c0.01,0.81-0.01,1.69,0.05,2.42c0.03,0.75,0.06,1.51,0.14,2.29c0.05,0.77,0.13,1.56,0.24,2.37c0.39,3.2,1,6.56,1.68,10.02
			l2.16,10.62c0.69,3.62,1.35,7.32,1.9,11.07c0.53,3.75,0.92,7.55,1.17,11.38c0.21,3.83,0.24,7.68,0.11,11.53
			c-0.12,1.92-0.21,3.84-0.43,5.76l-0.3,2.86c-0.13,0.95-0.27,1.9-0.42,2.85c-2.4,15.17-8.18,29.47-16.71,41.57
			c3.4-14.4,5.67-28.52,5.36-42.39c-0.11-6.93-0.82-13.77-1.98-20.56c-0.56-3.4-1.29-6.79-2.06-10.19
			c-0.75-3.41-1.62-6.82-2.53-10.29c-1.7-6.97-3.75-14.08-4.8-22.11c-0.14-1-0.25-2.01-0.33-3.06c-0.11-1.02-0.15-2.09-0.19-3.15
			c-0.06-1.09-0.02-2.03-0.02-3.04c-0.01-0.99,0.05-1.98,0.1-2.97l0.08-1.48l0.15-1.48c0.1-0.99,0.19-1.97,0.33-2.95
			c0.23-1.96,0.57-3.91,0.99-5.83c1.62-7.71,4.43-15.11,8.28-21.82c1.92-3.36,4.14-6.54,6.6-9.51
			C334.11,79.06,336.82,76.27,340.02,74.06z"/>
	</g>
	<g>
		<path class="st0" d="M246.49,69.92c-2.24,9.73-4.69,19.04-6.84,28.3c-2.17,9.24-4.09,18.38-5.35,27.36
			c-0.3,2.25-0.54,4.48-0.78,6.7l-0.25,3.32l-0.15,3.28c-0.01,1.08-0.07,2.18-0.04,3.25c0.01,1.07,0,2.12,0.07,3.31l0.13,3.45
			l0.21,3.45c0.06,1.15,0.15,2.3,0.26,3.45l0.3,3.44c0.25,2.3,0.51,4.59,0.82,6.89c0.6,4.6,1.34,9.2,2.22,13.84
			c0.82,4.65,1.75,9.35,2.67,14.12c0.9,4.78,1.75,9.64,2.44,14.61c0.67,4.97,1.11,10.03,1.28,15.12c0.1,5.09-0.04,10.21-0.66,15.27
			c-1.17,10.12-3.79,19.9-7.41,29.11c-3.61,9.22-8.11,17.96-13.37,26.19c2.65-9.39,5.11-18.72,6.85-28.06
			c0.94-4.65,1.52-9.34,2.03-13.97c0.44-4.65,0.63-9.27,0.57-13.86c-0.05-4.59-0.42-9.15-1.04-13.68c-0.57-4.54-1.44-9.05-2.45-13.6
			c-0.98-4.55-2.17-9.12-3.36-13.78c-1.16-4.66-2.36-9.39-3.48-14.2c-2.14-9.64-3.91-19.61-4.59-29.7l-0.25-3.78l-0.14-3.79
			c-0.06-1.23-0.05-2.59-0.04-3.93c-0.02-1.35,0.11-2.66,0.16-3.99c0.07-1.33,0.22-2.63,0.36-3.94l0.54-3.88
			c0.22-1.28,0.42-2.56,0.67-3.83c0.29-1.26,0.53-2.53,0.85-3.77c2.41-9.98,6.13-19.39,10.78-28.22c2.3-4.42,4.9-8.68,7.7-12.79
			C239.98,77.49,242.99,73.52,246.49,69.92z"/>
	</g>
</g>
</svg>
