<?xml version="1.0" encoding="UTF-8"?><svg xmlns="http://www.w3.org/2000/svg" viewBox="0 0 40 40"><defs><style>.d{fill:#341f59;}</style></defs><g id="a"><path class="d" d="M5.51,29.13v-.03c1.56,.19,3.1,.07,4.62-.35,1.51-.42,2.88-1.11,4.15-2.09-1.3-.05-2.43-.44-3.44-1.2-1-.76-1.69-1.74-2.09-2.95,.99,.2,2.23,.08,2.59-.09-3.25-.76-4.76-3.67-4.65-5.87,.42,.16,.83,.34,1.26,.48,.43,.14,.88,.21,1.38,.23-1.29-.92-2.12-2.12-2.46-3.63-.39-1.7,.06-3.38,.67-4.28,3.21,3.78,7.27,5.86,12.24,6.21-.15-.68-.2-1.33-.12-1.98,.14-1.21,.59-2.29,1.38-3.22,.88-1.03,1.98-1.7,3.31-1.98,.22-.05,.43-.08,.65-.12h1.16c.11,.02,.21,.04,.32,.06,1.33,.21,2.46,.79,3.4,1.75,.03,.03,.09,.04,.14,.03,1.13-.23,2.2-.61,3.21-1.16l.49-.26c-.47,1.41-1.32,2.48-2.52,3.27,.06,0,.11-.01,.17-.02,.87-.12,1.71-.34,2.52-.65,.2-.08,.41-.15,.61-.23v.03s-.05,.04-.07,.06c-.72,1.07-1.59,1.98-2.62,2.76-.19,.14-.28,.27-.26,.53,.02,.54,0,1.08-.05,1.62-.05,.63-.12,1.27-.24,1.89-.28,1.52-.77,2.99-1.44,4.38-.94,1.94-2.17,3.66-3.75,5.13-.87,.81-1.81,1.52-2.84,2.12-2.12,1.24-4.41,1.94-6.85,2.16-.16,.01-.31,.04-.47,.06h-2.51s-.03-.03-.05-.03c-.66-.09-1.31-.15-1.96-.26-1.28-.23-2.51-.61-3.68-1.17-.75-.36-1.46-.78-2.19-1.17Z"/></g><g id="b"/><g id="c"/></svg>