<?xml version="1.0" encoding="utf-8"?>
<!-- Generator: Adobe Illustrator 26.2.1, SVG Export Plug-In . SVG Version: 6.00 Build 0)  -->
<svg version="1.1" id="Capa_1" xmlns="http://www.w3.org/2000/svg" xmlns:xlink="http://www.w3.org/1999/xlink" x="0px" y="0px"
	 viewBox="0 0 40 40" style="enable-background:new 0 0 40 40;" xml:space="preserve">
<style type="text/css">
	.st0{fill:#1D1D1B;}
	.st1{fill:none;stroke:#FFFFFF;stroke-width:1.5294;stroke-miterlimit:10;}
	.st2{fill:none;stroke:#FFFFFF;stroke-width:1.6799;stroke-miterlimit:10;}
	.st3{fill:#FFFFFF;stroke:#FFFFFF;stroke-width:0.3207;stroke-miterlimit:10;}
	.st4{fill:#FFFFFF;}
</style>
<g>
	<path class="st0" d="M28.79,33.21H11.98c-2.52,0-4.56-2.04-4.56-4.56v-17.3c0-2.52,2.04-4.56,4.56-4.56h16.81
		c2.52,0,4.56,2.04,4.56,4.56v17.3C33.35,31.16,31.31,33.21,28.79,33.21z"/>
	<path class="st4" d="M12.91,13.12c0,0,1.91,3.27,7.62,3.93c0,0-0.88-3.42,2.18-4.23c0,0,2.82-1,4.35,0.87l2.02-0.94
		c0.08-0.04,0.17,0.02,0.17,0.1c0.02,0.28-0.14,0.91-1.44,1.79c0,0,0.56,0.2,1.88-0.49c0.05-0.03,0.11,0.02,0.09,0.07
		c-0.08,0.32-0.43,1.13-1.84,2.07c0,0-0.24,8.56-7.41,10.94c0,0-4.77,1.66-8.83-1.98c0,0,3.74,0.77,5.28-1.02
		c0,0-2.97-0.74-3.33-2.68l1.56-0.07c0,0-2.84-0.64-2.84-3.84c0,0,1.02,0.57,1.53,0.5C13.89,18.14,11.41,16.3,12.91,13.12z"/>
</g>
</svg>
