<svg xmlns="http://www.w3.org/2000/svg" viewBox="0 0 37.81 28.89"><defs><style>.cls-1{fill:#734a91;}</style></defs><g id="Capa_2" data-name="Capa 2"><g id="Capa_1-2" data-name="Capa 1"><path class="cls-1" d="M12,0c-.1.47-1.12,5.63,1.55,6.49h0a1.84,1.84,0,0,1,2.1-1.21l6.45,0s2.07-.13,2.44,1.22c0,0,0,0,0,0,.19-.07,2.64-1,1.49-6.08,0,0,0,0,0,0,.34.13,3.85,1.66,1.38,7.47,0,0,0,0,0,0L30.3,6.43a1.6,1.6,0,0,1,1.3-.08l5.94,2.26a.41.41,0,0,1,.23.57c-.67,1.4-3.36,5.63-10.27,2.67,0,0,0,0,0,0,.12.23.69,1.62-1.08,4.14h0a11.59,11.59,0,0,0-1.27,5.55h0c0,.06,2.35,3.09-.88,4.88a1.9,1.9,0,0,0-1.56,1.64h0c-.08.05-2.93,1.78-7.1,0h0a1.68,1.68,0,0,0-1.75-1.36h0s-3-1.49-.83-5.51c0,0,.85-1.21-1.3-5.79h0a2.85,2.85,0,0,1-.58-3.61s0,0,0,0c-.61.34-7.2,3.81-11.1-3.28v0C.23,8.35,6.58,3.91,10.74,8c0,0,0,0,0,0C10.4,7.28,8,2.32,12,0,12,0,12,0,12,0Z"/></g></g></svg>