<svg xmlns="http://www.w3.org/2000/svg" viewBox="0 0 50.35 49.19"><defs><style>.cls-1{fill:#d7b4d1;}.cls-2{fill:#734a91;}.cls-3{fill:#341f59;}</style></defs><g id="Capa_2" data-name="Capa 2"><g id="Capa_1-2" data-name="Capa 1"><rect class="cls-1" width="50.35" height="49.19" rx="6.73"/><path class="cls-2" d="M23,32.3s-20.1-2.4-9.73-26c0,0,8.16,2.56,11.77,10.26,0,0-4.71,3.69-2.35,12.5l-6.6-14.91S15.62,23.16,23,32.3Z"/><path class="cls-2" d="M26.38,32.3s15.23.4,10-21.08c0,0-19.1,3.76-11.31,20.44,0,0,3.67-11,6.49-11.17C31.53,20.49,27.66,26.9,26.38,32.3Z"/><path class="cls-3" d="M9.56,42,6.4,34.33h.92l2.78,6.91,2.83-6.91h.85L10.58,42Z"/><path class="cls-3" d="M16.39,42.13A2.82,2.82,0,0,1,15,41.75a3,3,0,0,1-1-1,2.85,2.85,0,0,1-.38-1.45,2.81,2.81,0,0,1,.37-1.44,2.72,2.72,0,0,1,1-1,2.6,2.6,0,0,1,1.38-.38,2.4,2.4,0,0,1,1.32.38,2.64,2.64,0,0,1,.94,1,3,3,0,0,1,.35,1.44v.25H14.36a2.17,2.17,0,0,0,.34,1,2,2,0,0,0,.73.67,2,2,0,0,0,1,.25,2.63,2.63,0,0,0,.84-.13,1.93,1.93,0,0,0,.68-.37l.51.53a3.65,3.65,0,0,1-1,.52A3.41,3.41,0,0,1,16.39,42.13Zm-2-3.26h3.68a2.12,2.12,0,0,0-.32-.89,1.89,1.89,0,0,0-.65-.61,1.63,1.63,0,0,0-.84-.23,1.81,1.81,0,0,0-.87.22,1.84,1.84,0,0,0-.66.61A2.09,2.09,0,0,0,14.38,38.87Z"/><path class="cls-3" d="M22.69,44.38a4.33,4.33,0,0,1-1.13-.15,4,4,0,0,1-1-.42l.35-.64a4.58,4.58,0,0,0,.92.39,3.06,3.06,0,0,0,.85.12,1.7,1.7,0,0,0,1.19-.38,1.42,1.42,0,0,0,.41-1.1v-.77a2.63,2.63,0,0,1-1.75.64,2.65,2.65,0,0,1-1.39-.37,2.8,2.8,0,0,1-1-1,3,3,0,0,1,0-2.87,2.8,2.8,0,0,1,1-1,2.7,2.7,0,0,1,1.41-.37,2.59,2.59,0,0,1,1.74.65v-.55h.8v5.67a2.07,2.07,0,0,1-.62,1.62A2.48,2.48,0,0,1,22.69,44.38Zm-.12-3a2.37,2.37,0,0,0,1-.2,1.9,1.9,0,0,0,.72-.56V37.89a1.93,1.93,0,0,0-.73-.55,2.32,2.32,0,0,0-1-.2,2,2,0,0,0-1.75,1,2.26,2.26,0,0,0-.26,1.07,2.16,2.16,0,0,0,.27,1.08,2.1,2.1,0,0,0,.72.76A2,2,0,0,0,22.57,41.36Z"/><path class="cls-3" d="M28.19,42.13a2.54,2.54,0,0,1-1.06-.21,1.72,1.72,0,0,1-.71-.59,1.39,1.39,0,0,1-.26-.86,1.48,1.48,0,0,1,.59-1.24,2.61,2.61,0,0,1,1.61-.45,3.44,3.44,0,0,1,1.61.38v-.73a1.28,1.28,0,0,0-.37-1,1.6,1.6,0,0,0-1.09-.33,3,3,0,0,0-.82.12,4.49,4.49,0,0,0-.91.36l-.3-.62a6.11,6.11,0,0,1,1.1-.42,3.83,3.83,0,0,1,1-.13,2.37,2.37,0,0,1,1.61.49,1.77,1.77,0,0,1,.57,1.42V42H30v-.54a2.67,2.67,0,0,1-.81.48A3,3,0,0,1,28.19,42.13Zm-1.25-1.69a.92.92,0,0,0,.39.76,1.68,1.68,0,0,0,1,.29,2.36,2.36,0,0,0,.9-.16,1.93,1.93,0,0,0,.73-.48v-1a2.16,2.16,0,0,0-.72-.34,3.35,3.35,0,0,0-.87-.1,1.68,1.68,0,0,0-1.05.29A.91.91,0,0,0,26.94,40.44Z"/><path class="cls-3" d="M32.13,42V36.52h.81v.65a2.18,2.18,0,0,1,1.74-.76,2.23,2.23,0,0,1,1.11.27,1.91,1.91,0,0,1,.75.74,2.26,2.26,0,0,1,.27,1.12V42H36V38.71a1.55,1.55,0,0,0-.41-1.16,1.47,1.47,0,0,0-1.13-.43,1.72,1.72,0,0,0-.88.22,1.92,1.92,0,0,0-.64.63V42Z"/><path class="cls-3" d="M40.73,42.14a2.77,2.77,0,0,1-1.42-.38,2.8,2.8,0,0,1-1-1,3,3,0,0,1,0-2.9,2.73,2.73,0,0,1,1-1,2.86,2.86,0,0,1,2.85,0,2.73,2.73,0,0,1,1,1,3,3,0,0,1,0,2.9,2.8,2.8,0,0,1-1,1A2.75,2.75,0,0,1,40.73,42.14Zm0-.73a1.86,1.86,0,0,0,1-.28,2.24,2.24,0,0,0,.73-.77,2.22,2.22,0,0,0,.27-1.08,2.18,2.18,0,0,0-.27-1.09,2.21,2.21,0,0,0-.73-.76,1.92,1.92,0,0,0-2,0,2.13,2.13,0,0,0-.73.76,2.18,2.18,0,0,0-.27,1.09A2.22,2.22,0,0,0,39,40.36a2.15,2.15,0,0,0,.73.77A1.85,1.85,0,0,0,40.73,41.41Z"/></g></g></svg>